<?xml version="1.0" encoding="UTF-8"?><svg id="Layer_1" xmlns="http://www.w3.org/2000/svg" viewBox="0 0 1261.5767 305.6465"><path d="M457.2036,124.4033v32.9541h-110.0303V27.7627h107.5732v32.9541h-63.7119v15.1816h55.96v31.4727h-55.96v17.0322h66.1689Z" style="fill:#fff;"/><path d="M531.1216,124.7734h-12.0996v32.584h-44.6172V27.7627h63.7119c36.8662,0,60.3086,18.8838,60.3086,48.876,0,18.6982-9.0742,32.7686-24.9551,40.7295l27.791,39.9893h-47.6416l-22.498-32.584ZM535.2808,61.458h-16.2588v30.3613h16.2588c12.2891,0,18.1494-5.7393,18.1494-15.1807s-5.8604-15.1807-18.1494-15.1807Z" style="fill:#fff;"/><path d="M733.4106,157.3574l-.3779-59.0576-28.7373,47.3945h-19.6611l-28.7373-45.3584v57.0215h-40.6465V27.7627h36.6768l43.1045,69.0557,41.9707-69.0557h36.6768l.3789,129.5947h-40.6475Z" style="fill:#fff;"/><path d="M349.5688,196.8154h32.9287c25.8809,0,43.3271,16.291,43.3271,39.5957s-17.4463,39.5947-43.3271,39.5947h-32.9287v-79.1904ZM382.0347,268.7656c21.4912,0,35.3555-13.3496,35.3555-32.3545s-13.8643-32.3555-35.3555-32.3555h-23.916v64.71h23.916Z" style="fill:#fff;"/><path d="M437.1411,246.2529c0-17.6484,13.1719-30.2051,30.9648-30.2051s30.8496,12.5566,30.8496,30.2051-13.0566,30.3184-30.8496,30.3184-30.9648-12.6699-30.9648-30.3184ZM490.6362,246.2529c0-13.915-9.5898-23.1914-22.5303-23.1914s-22.6455,9.2764-22.6455,23.1914,9.7051,23.1914,22.6455,23.1914,22.5303-9.2764,22.5303-23.1914Z" style="fill:#fff;"/><path d="M509.5806,246.2529c0-17.7607,13.1719-30.2051,31.3115-30.2051,10.2832,0,18.9482,3.959,23.8008,11.7656l-6.123,4.0723c-4.1592-5.9961-10.6299-8.8242-17.6777-8.8242-13.2871,0-22.9922,9.2764-22.9922,23.1914,0,14.0283,9.7051,23.1914,22.9922,23.1914,7.0479,0,13.5186-2.7148,17.6777-8.7109l6.123,4.0723c-4.8525,7.6934-13.5176,11.7656-23.8008,11.7656-18.1396,0-31.3115-12.5566-31.3115-30.3184Z" style="fill:#fff;"/><path d="M635.5142,216.5v59.5059h-7.8564v-10.8604c-4.2754,7.2402-12.1318,11.4258-21.8369,11.4258-15.4824,0-25.6504-8.4844-25.6504-25.5664v-34.5049h8.2041v33.7129c0,12.6699,6.7012,19.1182,18.2549,19.1182,12.709,0,20.6816-8.0322,20.6816-21.6074v-31.2236h8.2031Z" style="fill:#fff;"/><path d="M758.7895,241.502v34.5039h-8.2031v-33.7119c0-12.5576-6.4707-19.0059-17.4463-19.0059-12.4785,0-20.335,7.9189-20.335,21.4941v31.2236h-8.2031v-33.7119c0-12.5576-6.4707-19.0059-17.5625-19.0059-12.3623,0-20.335,7.9189-20.335,21.4941v31.2236h-8.2031v-59.5059h7.8564v10.8604c4.2754-7.127,12.1318-11.3125,22.2988-11.3125,10.0527,0,17.9092,4.1855,21.6064,12.5566,4.3906-7.6924,13.0557-12.5566,24.0322-12.5566,14.7891,0,24.4941,8.3711,24.4941,25.4541Z" style="fill:#fff;"/><path d="M834.229,248.7422h-50.8369c.9238,12.4434,10.6289,20.7021,23.916,20.7021,7.3945,0,13.9805-2.6016,18.6025-7.8057l4.6211,5.2041c-5.4307,6.335-13.8643,9.7285-23.4541,9.7285-18.9492,0-31.8896-12.6699-31.8896-30.3184s12.5938-30.2051,29.6943-30.2051,29.4619,12.3311,29.4619,30.2051c0,.6787-.1152,1.584-.1152,2.4893ZM783.3921,242.7461h43.0957c-1.04-11.6523-9.7051-19.7979-21.6055-19.7979-11.7852,0-20.4512,8.1455-21.4902,19.7979Z" style="fill:#fff;"/><path d="M907.0142,241.502v34.5039h-8.2031v-33.7119c0-12.5576-6.7012-19.0059-18.2549-19.0059-13.0566,0-21.2598,7.9189-21.2598,21.4941v31.2236h-8.2031v-59.5059h7.8564v10.9736c4.3906-7.2402,12.5938-11.4258,23.1084-11.4258,14.7891,0,24.9561,8.3711,24.9561,25.4541Z" style="fill:#fff;"/><path d="M961.313,272.3857c-3.2354,2.8281-8.0879,4.1855-12.8252,4.1855-11.4385,0-17.793-6.335-17.793-17.3086v-35.9746h-10.8613v-6.7881h10.8613v-13.0098h8.2031v13.0098h18.4863v6.7881h-18.4863v35.5225c0,7.0137,3.6973,10.8604,10.5137,10.8604,3.3506,0,6.7012-1.0186,9.0127-3.0547l2.8887,5.7695Z" style="fill:#fff;"/><path d="M1022.0825,239.126v36.8799h-7.8564v-9.2764c-3.6973,6.1084-10.8613,9.8418-20.9131,9.8418-13.749,0-22.1836-7.0137-22.1836-17.3086,0-9.1631,6.0078-16.8564,23.4551-16.8564h19.2949v-3.6201c0-10.1816-5.8926-15.7246-17.2158-15.7246-7.8564,0-15.251,2.7148-20.2188,7.0137l-3.6973-5.9951c6.123-5.0908,15.1357-8.0322,24.7246-8.0322,15.7139,0,24.6104,7.6924,24.6104,23.0781ZM1013.8794,258.1318v-9.7295h-19.0645c-11.7852,0-15.5977,4.5254-15.5977,10.6338,0,6.9014,5.6611,11.2002,15.3672,11.2002,9.2432,0,16.0596-4.2988,19.2949-12.1045Z" style="fill:#fff;"/><path d="M1076.3813,272.3857c-3.2344,2.8281-8.0869,4.1855-12.8242,4.1855-11.4385,0-17.793-6.335-17.793-17.3086v-35.9746h-10.8613v-6.7881h10.8613v-13.0098h8.2031v13.0098h18.4863v6.7881h-18.4863v35.5225c0,7.0137,3.6973,10.8604,10.5137,10.8604,3.3506,0,6.7012-1.0186,9.0127-3.0547l2.8877,5.7695Z" style="fill:#fff;"/><path d="M1089.4341,197.7207c0-3.0547,2.6572-5.6562,6.0078-5.6562s6.0078,2.4883,6.0078,5.543c0,3.2812-2.541,5.8828-6.0078,5.8828-3.3506,0-6.0078-2.6016-6.0078-5.7695ZM1091.2827,216.5h8.2031v59.5059h-8.2031v-59.5059Z" style="fill:#fff;"/><path d="M1116.2368,246.2529c0-17.6484,13.1719-30.2051,30.9648-30.2051s30.8496,12.5566,30.8496,30.2051-13.0566,30.3184-30.8496,30.3184-30.9648-12.6699-30.9648-30.3184ZM1169.7319,246.2529c0-13.915-9.5898-23.1914-22.5303-23.1914s-22.6455,9.2764-22.6455,23.1914,9.7051,23.1914,22.6455,23.1914,22.5303-9.2764,22.5303-23.1914Z" style="fill:#fff;"/><path d="M1250.7212,241.502v34.5039h-8.2031v-33.7119c0-12.5576-6.7012-19.0059-18.2549-19.0059-13.0566,0-21.2598,7.9189-21.2598,21.4941v31.2236h-8.2031v-59.5059h7.8564v10.9736c4.3906-7.2402,12.5938-11.4258,23.1084-11.4258,14.7891,0,24.9561,8.3711,24.9561,25.4541Z" style="fill:#fff;"/><path d="M277.0376,26.2781c2.5628-.1522,5.6127-.0112,8.944.74,5.2762,1.1898,7.9922,5.1634,7.0532,10.3103-.3208,1.758-.8238,3.4825-1.663,5.0802-2.9693,5.6532-6.4264,11.0028-11.0437,15.5529-5.9939,5.9066-13.4261,9.0034-21.8255,10.1159-2.9035.3846-5.8199.4468-8.7474.4453-46.7797-.0249-93.5594-.0419-140.3391-.0406-28.7755.0008-57.551.0357-86.3266.0549-.7694.0005-1.5389.0041-2.3082-.0068-2.4327-.0346-4.3272-1.0498-5.5102-3.0868-4.5499-7.8344-9.0587-15.6911-13.5674-23.5477-.5973-1.0409-1.0112-2.1657-1.3034-3.3237-1.6545-6.5565,1.9155-11.3976,8.9013-11.9454,3.1406-.2463,6.2981-.407,9.4481-.409,42.0865-.0263,84.1731-.0176,126.2597.8138,89.8843.1168,126.4-.1169,129.7847-.5471.1059-.0135,1.0143-.1332,2.2433-.2062Z" style="fill:#eb4646;"/><path d="M22.2424,76.2736c.8798-.3099,1.65-.1821,2.4038-.1828,20.6983-.0188,41.3965-.028,62.0948-.0386.4617-.0002.9234-.0047,1.385.002,2.6096.0384,3.0131.3923,2.8969,2.8278-.1102,2.3107.5711,4.4043,1.7132,6.3778,1.8004,3.1109,3.6608,6.1893,5.466,9.2976,2.501,4.3064,5.9408,7.7577,10.2583,10.3607,4.6262,2.7892,9.2253,5.645,14.6271,6.9412,3.5358.8484,7.1279,1.1441,10.7456,1.1444,30.7778.0032,61.5557-.0231,92.3335-.0223,2.5361,0,5.0753.0697,7.5779.5768,4.4541.9025,7.3794,3.5548,7.986,7.3173.3293,2.0424-.1396,3.9935-.8906,5.8838-2.084,5.245-5.5794,9.5079-9.7853,13.3266-7.7226,7.0118-16.9547,10.3515-27.4276,10.4642-12.6936.1366-25.3898.0561-38.0849.0581-27.6231.0044-55.2462-.0007-82.8693.0038-4.4624.0007-8.9262-.0271-13.3868.0689-2.5488.0548-4.2184-.8942-5.2087-3.2002-1.1498-2.6776-2.7479-5.1408-4.2621-7.6408-8.9274-14.7389-17.6985-29.5653-26.2493-44.5098-3.1997-5.5921-6.4497-11.1448-9.9668-16.5542-.483-.7429-1.0833-1.4371-1.3569-2.5025Z" style="fill:#eb4646;"/><path d="M71.5711,157.7884c.8366-.3335,1.7614-.1707,2.6575-.1712,19.4619-.0106,38.9239-.0075,58.3858-.0094,1.6149-.0002,3.2317-.0707,4.8441-.0143,1.816.0636,2.3087.4535,2.2136,2.1041-.1922,3.3364.9249,6.293,2.5829,9.1002,2.1308,3.6079,4.0629,7.3354,6.7423,10.6219,6.4544,7.917,14.7859,12.8733,25.073,14.5876,2.8643.4774,5.818.4689,8.7333.6407,1.2423.0732,2.441.3266,3.6064.6961,5.4186,1.7174,7.8154,6.0982,6.2372,11.4112-1.0465,3.523-2.8403,6.7235-4.7193,9.8795-5.7847,9.7166-11.5842,19.4248-17.3642,29.144-4.1341,6.9516-8.2742,13.9001-12.3541,20.8813-1.6425,2.8105-3.76,5.2487-6.0143,7.5865-2.0558,2.1319-4.7222,1.9196-7.3265,1.4485-2.003-.3624-3.6899-1.3825-5.0667-2.8942-2.5515-2.8016-4.7291-5.8512-6.641-9.0821-15.5972-26.3568-31.1855-52.7184-46.7834-79.0747-3.6229-6.1218-7.3066-12.2105-10.8915-18.3529-1.281-2.195-2.3679-4.4968-3.5082-6.7664-.2562-.5098-.6957-1.011-.4072-1.7364Z" style="fill:#eb4646;"/></svg>